<svg xmlns="http://www.w3.org/2000/svg" viewBox="0 0 48 48" style="fill:white;">
    <g>
        <path d="M23.8,0C10.6,0,0,10.6,0,23.8s10.6,23.8,23.8,23.8c13.1,0,23.8-10.6,23.8-23.8 C47.5,10.6,36.9,0,23.8,0z M37.8,37.8c-7.8,7.8-20.4,7.8-28.2,0c-7.8-7.8-7.8-20.4,0-28.2c7.8-7.8,20.4-7.8,28.2,0 c3.7,3.7,5.8,8.8,5.8,14.1C43.7,29,41.6,34.1,37.8,37.8L37.8,37.8z"></path>
        <path d="M32.5,14.8c-1.6,1.3-3.1,2.5-4.6,3.6c-1.3,1-2.5,2-3.8,3c-0.2,0.2-0.4,0.3-0.7,0 c-2.7-2.2-5.5-4.3-8.2-6.5c-0.1-0.1-0.1-0.1-0.1-0.2L32.5,14.8z"></path>
        <path d="M34.9,17.9v13.7c0,1-0.8,1.8-1.8,1.8c0,0,0,0,0,0H14.4c-1,0-1.8-0.8-1.8-1.8c0,0,0,0,0,0 V17.9c3.5,2.7,6.9,5.3,10.4,8c0.4,0.3,1,0.3,1.4,0L34.9,17.9z"></path>
    </g>
</svg>