<svg xmlns="http://www.w3.org/2000/svg" viewBox="0 0 48 48" style="fill:white;">
    <g>
        <path d="M23.3,0c9,0,17.2,5.3,20.8,13.6c4.7,11.5-0.7,24.6-12.2,29.4c-6.1,2.5-12.9,2.2-18.8-0.7 c-0.4-0.2-0.9-0.3-1.4-0.1c-3.7,1.2-7.3,2.3-11,3.5c-0.2,0.1-0.4,0.2-0.6,0.1s0-0.4,0.1-0.6c1.2-3.6,2.4-7.1,3.6-10.6 c0.2-0.4,0.1-0.8-0.1-1.2c-5-8.7-3.5-19.6,3.6-26.7C11.5,2.3,17.3-0.1,23.3,0z M5.8,40.1c0.2,0,0.3,0,0.5-0.1    c1.9-0.6,3.8-1.2,5.7-1.8c0.5-0.2,1.2-0.1,1.6,0.2c8.4,5,19.1,2.7,24.8-5.1c3.4-4.5,4.5-10.4,2.9-15.8c-1.2-4.7-4.3-8.7-8.5-11.1    C25.2,1.7,15.3,3.2,9.3,9.9c-2.7,2.9-4.4,6.7-4.7,10.7C4.1,25,5.3,29.3,7.8,32.9c0.2,0.3,0.3,0.7,0.1,1c-0.7,1.9-1.3,3.8-2,5.7    C5.9,39.8,5.8,39.9,5.8,40.1z" id="Caminho_3"></path>
        <path d="M12.3,17.1c0-1.5,0.7-3,1.8-4.1c0.6-0.6,1.3-0.9,2.1-0.9c1.3-0.1,1.8,0.6,2.2,1.6 c0.4,1.1,0.9,2.2,1.4,3.3c0.3,0.6,0.2,1.2-0.2,1.7c-0.3,0.5-0.7,0.9-1.1,1.4c-0.3,0.3-0.4,0.8-0.1,1.2c1.3,2.2,3.1,4.1,5.4,5.3 c0.7,0.4,1.4,0.6,2,1c0.4,0.2,1,0.1,1.2-0.3c0.5-0.6,1-1.2,1.5-1.8c0.5-0.6,0.8-0.7,1.5-0.4c1.4,0.6,2.8,1.3,4.2,2    c0.4,0.2,0.7,0.6,0.6,1c-0.1,2.3-1,3.6-3.6,4.5c-1.2,0.4-2.6,0.4-3.8,0c-3.1-0.8-5.9-2.3-8.3-4.3c-2.5-2.2-4.5-4.8-6-7.8    C12.5,19.5,12.2,18.3,12.3,17.1z"></path>
    </g>
</svg>